<svg width="30" height="30" viewBox="0 0 30 30" fill="none" xmlns="http://www.w3.org/2000/svg">
<mask id="path-1-outside-1_73_1026" maskUnits="userSpaceOnUse" x="1" y="1" width="28" height="28" fill="black">
<rect fill="white" x="1" y="1" width="28" height="28"/>
<path d="M27.4852 20.4071C26.7983 19.2708 24.9856 18.7694 23.9662 18.5715C22.1056 18.2106 19.7078 18.238 18.5456 19.1132C18.1631 19.4015 17.9725 19.9972 17.928 21.0449C17.9221 21.1829 17.9195 21.3177 17.9188 21.4454C15.9441 20.6797 14.1213 19.5373 12.5655 18.0902L11.8823 17.4081C10.435 15.857 9.29184 14.0396 8.52523 12.0713C8.65341 12.0707 8.78873 12.0681 8.92735 12.0622C9.97449 12.0178 10.57 11.8279 10.8581 11.4465C11.731 10.2914 11.7626 7.90614 11.4067 6.05477C11.2094 5.02807 10.7074 3.20281 9.56255 2.51296C8.42361 1.82662 6.66327 1.99219 5.95925 2.09534C4.50684 2.30791 3.29852 2.82319 2.72688 3.47351C2.22875 4.04029 2.05376 5.65777 2.00169 6.3268C2.00029 6.34439 1.9998 6.36247 2.00008 6.38013C2.08578 11.8297 4.17361 17.0335 7.87881 21.0311C7.88379 21.0363 7.88883 21.0438 7.89395 21.0489L8.93267 22.0904C8.93779 22.0956 8.94298 22.1095 8.94837 22.1143C12.9516 25.8128 18.161 27.8593 23.6173 28C23.6202 28 23.6231 28 23.626 28C23.6404 28 23.6549 27.9818 23.6693 27.9808C24.3386 27.9288 25.9565 27.7367 26.523 27.2403C27.1749 26.6693 27.6914 25.4617 27.9045 24.0101C28.0078 23.3062 28.1739 21.5463 27.4852 20.4071ZM26.7952 23.8458C26.6277 24.9866 26.2221 26.0098 25.7864 26.3915C25.5911 26.5532 24.5776 26.7607 23.6086 26.8386C18.441 26.7512 13.5084 24.7762 9.71561 21.2754L8.69244 20.2538C5.1869 16.468 3.20945 11.5453 3.12185 6.38773C3.19929 5.42268 3.40658 4.41295 3.56784 4.21818C3.9511 3.7822 4.97722 3.37675 6.12127 3.20929C7.32125 3.03358 8.41899 3.1366 8.9858 3.47822C9.5327 3.80781 10.0386 4.87679 10.306 6.26811C10.657 8.09408 10.515 10.0132 9.97687 10.7504C9.75955 10.9036 8.77422 10.9857 7.85001 10.9302C7.74965 10.9048 7.64124 10.9065 7.53577 10.9418C7.44368 10.9727 7.36491 11.0253 7.3031 11.092C7.21403 11.1839 7.15544 11.3064 7.14549 11.4444C7.13694 11.5632 7.16603 11.6759 7.2223 11.7713C7.99739 14.0463 9.23731 16.1533 10.8501 17.9444C10.8691 17.975 10.8914 18.0042 10.9169 18.0315C11.0831 18.2093 11.2529 18.3838 11.4259 18.5545C11.5973 18.7277 11.7722 18.8975 11.9508 19.0637C11.9782 19.0891 12.0074 19.1114 12.038 19.1303C13.8313 20.7398 15.941 21.9776 18.2186 22.7511C18.3135 22.8074 18.4256 22.8365 18.5439 22.8276C18.6822 22.8175 18.8049 22.7576 18.8964 22.667C18.9058 22.6581 18.9142 22.6484 18.9231 22.6389C18.9255 22.6362 18.9279 22.6334 18.9304 22.6306C18.9798 22.5749 19.0201 22.5096 19.0449 22.4342C19.0797 22.3285 19.0811 22.22 19.0556 22.1195C19.0004 21.1992 19.0821 20.2187 19.2347 20.0021C19.9791 19.4602 21.9139 19.3201 23.7537 19.677C25.1363 19.9453 26.1991 20.4489 26.5269 20.9913C26.8681 21.5558 26.9709 22.6496 26.7952 23.8458Z"/>
</mask>
<path d="M27.4852 20.4071C26.7983 19.2708 24.9856 18.7694 23.9662 18.5715C22.1056 18.2106 19.7078 18.238 18.5456 19.1132C18.1631 19.4015 17.9725 19.9972 17.928 21.0449C17.9221 21.1829 17.9195 21.3177 17.9188 21.4454C15.9441 20.6797 14.1213 19.5373 12.5655 18.0902L11.8823 17.4081C10.435 15.857 9.29184 14.0396 8.52523 12.0713C8.65341 12.0707 8.78873 12.0681 8.92735 12.0622C9.97449 12.0178 10.57 11.8279 10.8581 11.4465C11.731 10.2914 11.7626 7.90614 11.4067 6.05477C11.2094 5.02807 10.7074 3.20281 9.56255 2.51296C8.42361 1.82662 6.66327 1.99219 5.95925 2.09534C4.50684 2.30791 3.29852 2.82319 2.72688 3.47351C2.22875 4.04029 2.05376 5.65777 2.00169 6.3268C2.00029 6.34439 1.9998 6.36247 2.00008 6.38013C2.08578 11.8297 4.17361 17.0335 7.87881 21.0311C7.88379 21.0363 7.88883 21.0438 7.89395 21.0489L8.93267 22.0904C8.93779 22.0956 8.94298 22.1095 8.94837 22.1143C12.9516 25.8128 18.161 27.8593 23.6173 28C23.6202 28 23.6231 28 23.626 28C23.6404 28 23.6549 27.9818 23.6693 27.9808C24.3386 27.9288 25.9565 27.7367 26.523 27.2403C27.1749 26.6693 27.6914 25.4617 27.9045 24.0101C28.0078 23.3062 28.1739 21.5463 27.4852 20.4071ZM26.7952 23.8458C26.6277 24.9866 26.2221 26.0098 25.7864 26.3915C25.5911 26.5532 24.5776 26.7607 23.6086 26.8386C18.441 26.7512 13.5084 24.7762 9.71561 21.2754L8.69244 20.2538C5.1869 16.468 3.20945 11.5453 3.12185 6.38773C3.19929 5.42268 3.40658 4.41295 3.56784 4.21818C3.9511 3.7822 4.97722 3.37675 6.12127 3.20929C7.32125 3.03358 8.41899 3.1366 8.9858 3.47822C9.5327 3.80781 10.0386 4.87679 10.306 6.26811C10.657 8.09408 10.515 10.0132 9.97687 10.7504C9.75955 10.9036 8.77422 10.9857 7.85001 10.9302C7.74965 10.9048 7.64124 10.9065 7.53577 10.9418C7.44368 10.9727 7.36491 11.0253 7.3031 11.092C7.21403 11.1839 7.15544 11.3064 7.14549 11.4444C7.13694 11.5632 7.16603 11.6759 7.2223 11.7713C7.99739 14.0463 9.23731 16.1533 10.8501 17.9444C10.8691 17.975 10.8914 18.0042 10.9169 18.0315C11.0831 18.2093 11.2529 18.3838 11.4259 18.5545C11.5973 18.7277 11.7722 18.8975 11.9508 19.0637C11.9782 19.0891 12.0074 19.1114 12.038 19.1303C13.8313 20.7398 15.941 21.9776 18.2186 22.7511C18.3135 22.8074 18.4256 22.8365 18.5439 22.8276C18.6822 22.8175 18.8049 22.7576 18.8964 22.667C18.9058 22.6581 18.9142 22.6484 18.9231 22.6389C18.9255 22.6362 18.9279 22.6334 18.9304 22.6306C18.9798 22.5749 19.0201 22.5096 19.0449 22.4342C19.0797 22.3285 19.0811 22.22 19.0556 22.1195C19.0004 21.1992 19.0821 20.2187 19.2347 20.0021C19.9791 19.4602 21.9139 19.3201 23.7537 19.677C25.1363 19.9453 26.1991 20.4489 26.5269 20.9913C26.8681 21.5558 26.9709 22.6496 26.7952 23.8458Z" fill="#272524"/>
<path d="M27.4852 20.4071C26.7983 19.2708 24.9856 18.7694 23.9662 18.5715C22.1056 18.2106 19.7078 18.238 18.5456 19.1132C18.1631 19.4015 17.9725 19.9972 17.928 21.0449C17.9221 21.1829 17.9195 21.3177 17.9188 21.4454C15.9441 20.6797 14.1213 19.5373 12.5655 18.0902L11.8823 17.4081C10.435 15.857 9.29184 14.0396 8.52523 12.0713C8.65341 12.0707 8.78873 12.0681 8.92735 12.0622C9.97449 12.0178 10.57 11.8279 10.8581 11.4465C11.731 10.2914 11.7626 7.90614 11.4067 6.05477C11.2094 5.02807 10.7074 3.20281 9.56255 2.51296C8.42361 1.82662 6.66327 1.99219 5.95925 2.09534C4.50684 2.30791 3.29852 2.82319 2.72688 3.47351C2.22875 4.04029 2.05376 5.65777 2.00169 6.3268C2.00029 6.34439 1.9998 6.36247 2.00008 6.38013C2.08578 11.8297 4.17361 17.0335 7.87881 21.0311C7.88379 21.0363 7.88883 21.0438 7.89395 21.0489L8.93267 22.0904C8.93779 22.0956 8.94298 22.1095 8.94837 22.1143C12.9516 25.8128 18.161 27.8593 23.6173 28C23.6202 28 23.6231 28 23.626 28C23.6404 28 23.6549 27.9818 23.6693 27.9808C24.3386 27.9288 25.9565 27.7367 26.523 27.2403C27.1749 26.6693 27.6914 25.4617 27.9045 24.0101C28.0078 23.3062 28.1739 21.5463 27.4852 20.4071ZM26.7952 23.8458C26.6277 24.9866 26.2221 26.0098 25.7864 26.3915C25.5911 26.5532 24.5776 26.7607 23.6086 26.8386C18.441 26.7512 13.5084 24.7762 9.71561 21.2754L8.69244 20.2538C5.1869 16.468 3.20945 11.5453 3.12185 6.38773C3.19929 5.42268 3.40658 4.41295 3.56784 4.21818C3.9511 3.7822 4.97722 3.37675 6.12127 3.20929C7.32125 3.03358 8.41899 3.1366 8.9858 3.47822C9.5327 3.80781 10.0386 4.87679 10.306 6.26811C10.657 8.09408 10.515 10.0132 9.97687 10.7504C9.75955 10.9036 8.77422 10.9857 7.85001 10.9302C7.74965 10.9048 7.64124 10.9065 7.53577 10.9418C7.44368 10.9727 7.36491 11.0253 7.3031 11.092C7.21403 11.1839 7.15544 11.3064 7.14549 11.4444C7.13694 11.5632 7.16603 11.6759 7.2223 11.7713C7.99739 14.0463 9.23731 16.1533 10.8501 17.9444C10.8691 17.975 10.8914 18.0042 10.9169 18.0315C11.0831 18.2093 11.2529 18.3838 11.4259 18.5545C11.5973 18.7277 11.7722 18.8975 11.9508 19.0637C11.9782 19.0891 12.0074 19.1114 12.038 19.1303C13.8313 20.7398 15.941 21.9776 18.2186 22.7511C18.3135 22.8074 18.4256 22.8365 18.5439 22.8276C18.6822 22.8175 18.8049 22.7576 18.8964 22.667C18.9058 22.6581 18.9142 22.6484 18.9231 22.6389C18.9255 22.6362 18.9279 22.6334 18.9304 22.6306C18.9798 22.5749 19.0201 22.5096 19.0449 22.4342C19.0797 22.3285 19.0811 22.22 19.0556 22.1195C19.0004 21.1992 19.0821 20.2187 19.2347 20.0021C19.9791 19.4602 21.9139 19.3201 23.7537 19.677C25.1363 19.9453 26.1991 20.4489 26.5269 20.9913C26.8681 21.5558 26.9709 22.6496 26.7952 23.8458Z" stroke="#272524" stroke-width="0.6" mask="url(#path-1-outside-1_73_1026)"/>
</svg>
