<svg width="52" height="62" viewBox="0 0 52 62" fill="none" xmlns="http://www.w3.org/2000/svg">
<path d="M37.333 25.9406C41.3127 27.0421 44.7645 29.3506 47.2001 32.4067C49.5837 35.3976 51 39.1072 51 43.1072V60.0619C51 60.58 50.58 61 50.0619 61H50.0337H1.96633H1.93814C1.42002 61 1 60.58 1 60.0619V43.1072C1 39.1063 2.41632 35.3976 4.79993 32.4067C7.23546 29.3506 10.6873 27.0421 14.667 25.9406L14.6727 25.939C14.9963 25.8488 15.3435 25.932 15.5911 26.159C16.9574 27.4089 18.5824 28.4171 20.3814 29.1032C22.1102 29.7631 24.0092 30.1281 25.9995 30.1281C27.9899 30.1281 29.8889 29.7631 31.6177 29.1032C33.4167 28.4171 35.0416 27.4089 36.408 26.159C36.6556 25.932 37.0027 25.8487 37.3264 25.9387L37.333 25.9406ZM40.4915 59.1246L40.4896 50.686C40.4896 50.1708 40.9204 49.7526 41.4511 49.7526C41.9819 49.7526 42.4127 50.1708 42.4127 50.686L42.4146 59.1246H49.0683V43.1081C49.0683 39.5329 47.8039 36.22 45.6761 33.5503C43.5934 30.9375 40.679 28.9314 37.3137 27.8897C35.8599 29.1331 34.1724 30.1421 32.3215 30.8469C30.3667 31.5928 28.2312 32.0054 26.0005 32.0054C23.7698 32.0054 21.6342 31.5937 19.6794 30.8469C17.8285 30.1412 16.1411 29.1331 14.6872 27.8897C11.3219 28.9314 8.40755 30.9365 6.3249 33.5503C4.19802 36.22 2.93266 39.5329 2.93266 43.1081V59.1246H9.58926L9.58733 50.686C9.58733 50.1708 10.0181 49.7526 10.5489 49.7526C11.0796 49.7526 11.5104 50.1708 11.5104 50.686L11.5123 59.1246H40.4915ZM31.7946 41.3116C31.7946 40.7938 32.2144 40.374 32.7323 40.374H38.4914C39.0093 40.374 39.4291 40.7938 39.4291 41.3116C39.4291 41.8295 39.0093 42.2493 38.4914 42.2493H32.7323C32.2144 42.2493 31.7946 41.8295 31.7946 41.3116ZM25.8563 34.7498L23.1544 51.3647L26.0005 54.8195L28.8485 51.3647L26.1457 34.7498H25.8563ZM21.1881 51.4814L24.0851 33.6688C24.16 33.2102 24.5561 32.8735 25.0208 32.8735H25.0351H26.9658H26.9802C27.4448 32.8735 27.841 33.2102 27.9158 33.6688L30.8138 51.4814C30.8554 51.7377 30.7848 51.9996 30.62 52.2004L30.6148 52.2067L26.7505 56.8936C26.3611 57.3656 25.638 57.3656 25.2486 56.8936L21.3871 52.2067L21.3819 52.2004C21.2171 51.9996 21.1465 51.7377 21.1881 51.4814ZM26.0014 1C29.5783 1 32.8205 2.36754 35.1705 4.57801C37.5253 6.79221 38.9848 9.85774 38.9848 13.2407C38.9848 16.6236 37.5262 19.6882 35.1705 21.9033C32.8205 24.1138 29.5783 25.4813 26.0014 25.4813C22.4246 25.4813 19.1823 24.1138 16.8324 21.9033C14.4776 19.6891 13.018 16.6236 13.018 13.2407C13.018 9.85774 14.4767 6.79314 16.8324 4.57801C19.1823 2.36754 22.4246 1 26.0014 1ZM33.8263 5.91754C31.8292 4.03846 29.062 2.87628 26.0014 2.87628C22.94 2.87628 20.1737 4.03846 18.1766 5.91754C16.1843 7.79103 14.9507 10.3824 14.9507 13.2397C14.9507 16.098 16.1834 18.6884 18.1766 20.5619C20.1737 22.441 22.9409 23.6031 26.0014 23.6031C29.0629 23.6031 31.8292 22.441 33.8263 20.5619C35.8186 18.6884 37.0522 16.0971 37.0522 13.2397C37.0522 10.3814 35.8195 7.79103 33.8263 5.91754Z" fill="#F58221" stroke="#F58221"/>
</svg>
