<svg width="52" height="62" viewBox="0 0 52 62" fill="none" xmlns="http://www.w3.org/2000/svg">
<path d="M49.7254 60.9646C50.4222 60.9646 51 60.3636 51 59.6388V16.8044C51 16.7867 51 16.7514 51 16.7337C51 16.3801 50.864 16.0442 50.6431 15.8144C46.6656 11.0151 42.8986 5.77871 38.5935 1.30057C38.5425 1.26522 38.5085 1.22986 38.4575 1.1945C38.3721 1.10561 38.2303 1.06888 38.1176 1.0354C38.0074 0.995738 37.9131 1.00004 37.7947 1.00004H2.27464C1.57784 1.00004 1 1.6011 1 2.32591V59.6741C1 60.3989 1.57784 61 2.27464 61H49.7254V60.9646ZM39.0693 5.86156L46.9551 15.3901H39.0693V5.86156ZM3.54929 3.61642H36.5201V16.716C36.5201 17.4408 37.0979 18.0419 37.7947 18.0419H48.4677V58.2952H3.54929V3.61642Z" fill="#F58221" stroke="#F58221" stroke-width="0.4"/>
<path d="M22.1144 44.4L11 32.7996L12.9149 30.8008L22.1144 40.4027L38.0851 23.7334L40 25.7321L22.1144 44.4Z" fill="#F58221" stroke="#F58221" stroke-width="0.5"/>
</svg>
