<svg width="67" height="60" viewBox="0 0 67 60" fill="none" xmlns="http://www.w3.org/2000/svg">
<path d="M65.6604 21.0086H1.33964C0.818372 21.0086 0.344677 20.7059 0.124915 20.2322C-0.0948478 19.7584 -0.0204773 19.2001 0.315197 18.8015L15.7415 0.4771C15.9961 0.174466 16.3706 0 16.7659 0H50.2375C50.6328 0 51.0073 0.174466 51.2619 0.4771L66.6848 18.8015C67.0205 19.2008 67.0949 19.7591 66.8751 20.2322C66.6553 20.7053 66.1816 21.0086 65.6604 21.0086ZM4.22268 18.3244H62.7787L49.615 2.68411H17.389L4.22268 18.3244Z" fill="#F58221"/>
<path d="M33.4999 59.9995L0.314453 20.5303L2.36468 18.8018L33.4999 55.8318L64.6352 18.8018L66.6854 20.5303L33.4999 59.9995Z" fill="#F58221"/>
<path d="M33.5 59.2582C32.9312 59.2582 32.4253 58.8992 32.2364 58.3624L18.7719 20.1131C18.6238 19.6937 18.6935 19.2294 18.9561 18.871L32.4206 0.5466C32.9245 -0.140533 34.0735 -0.140533 34.5787 0.5466L48.0459 18.871C48.3092 19.2287 48.3782 19.6937 48.2301 20.1131L34.763 58.3624C34.5747 58.8992 34.0688 59.2582 33.5 59.2582ZM21.535 19.8903L33.4993 53.8806L45.4663 19.8903L33.5 3.60649L21.535 19.8903Z" fill="#F58221"/>
<path d="M21.3544 19.4294L18.0851 1.10547L15.4469 1.5776L18.7162 19.9015L21.3544 19.4294Z" fill="#F58221"/>
<path d="M51.5582 1.5769L48.92 1.10449L45.6487 19.4291L48.2869 19.9015L51.5582 1.5769Z" fill="#F58221"/>
</svg>
