<svg width="59" height="64" viewBox="0 0 59 64" fill="none" xmlns="http://www.w3.org/2000/svg">
<path d="M11.1667 25.0771H2V48.1541H11.1667V25.0771Z" stroke="#F58221" stroke-width="3" stroke-linecap="round" stroke-linejoin="round"/>
<path d="M57 25.0771H47.8333V48.1541H57V25.0771Z" stroke="#F58221" stroke-width="3" stroke-linecap="round" stroke-linejoin="round"/>
<path d="M6.58331 25.0769C6.58331 18.9565 8.99774 13.0868 13.2954 8.75907C17.5932 4.43131 23.4221 2 29.5 2V2C35.5779 2 41.4068 4.43131 45.7045 8.75907C50.0022 13.0868 52.4166 18.9565 52.4166 25.0769" stroke="#F58221" stroke-width="3" stroke-linecap="round" stroke-linejoin="round"/>
<path d="M52.4167 48.1543V52.7697C52.4167 53.9938 51.9338 55.1677 51.0743 56.0333C50.2147 56.8988 49.0489 57.3851 47.8334 57.3851H38.6667" stroke="#F58221" stroke-width="3" stroke-linecap="round" stroke-linejoin="round"/>
<path d="M38.6666 52.7695H29.4999V62.0003H38.6666V52.7695Z" stroke="#F58221" stroke-width="3" stroke-linecap="round" stroke-linejoin="round"/>
</svg>
