<svg width="64" height="64" viewBox="0 0 64 64" fill="none" xmlns="http://www.w3.org/2000/svg">
<path d="M24.7175 58.0748L26.0539 58.9159C27.1229 59.4766 28.4592 59.757 29.7956 59.757H48.2368C53.0476 59.757 57.0566 56.1121 57.8583 51.3458L61.8673 29.4766C62.6691 25.5514 59.7292 22.1869 55.9875 22.1869H45.2969L49.8404 9.00935C50.1077 8.4486 50.1077 7.88785 50.1077 7.3271C50.1077 4.52336 47.9696 2 45.0296 2C43.4261 2 42.0897 2.84112 41.0207 3.96262L25.2521 25.8318H24.7175" stroke="#F58221" stroke-width="3" stroke-miterlimit="10" stroke-linecap="round" stroke-linejoin="round"/>
<path d="M21.7776 61.9999H4.67265C3.06906 61.9999 2 60.8784 2 59.1962V24.1494C2 22.4672 3.06906 21.3457 4.67265 21.3457H22.0448C23.6484 21.3457 24.7175 22.4672 24.7175 24.1494V59.4765C24.4502 60.8784 23.3812 61.9999 21.7776 61.9999Z" stroke="#F58221" stroke-width="3" stroke-miterlimit="10" stroke-linecap="round" stroke-linejoin="round"/>
</svg>
