<svg width="58" height="62" viewBox="0 0 58 62" fill="none" xmlns="http://www.w3.org/2000/svg">
<path d="M47.6667 2C47.6667 1.44772 47.219 1 46.6667 1H46.3333C45.781 1 45.3333 1.44772 45.3333 2V7.25H12.6667V2C12.6667 1.44772 12.219 1 11.6667 1H11.3333C10.781 1 10.3333 1.44772 10.3333 2V7.25H2C1.44771 7.25 1 7.69772 1 8.25V24.75V60C1 60.5523 1.44772 61 2 61H56C56.5523 61 57 60.5523 57 60V24.75V8.25C57 7.69772 56.5523 7.25 56 7.25H47.6667V2ZM54.6667 58.5H3.33333V24.75H54.6667V58.5ZM54.6667 9.75V22.25H3.33333V9.75H10.3333V16H12.6667V9.75H45.3333V16H47.6667V9.75H54.6667Z" fill="#F58221" stroke="#F58221" stroke-width="0.5"/>
</svg>
