<svg width="80" height="60" viewBox="0 0 80 60" fill="none" xmlns="http://www.w3.org/2000/svg">
<path d="M38.2683 40.1509L3.12595 20.9303L38.2683 1.7097L73.4107 20.9303L38.2683 40.1509Z" stroke="#F58221" stroke-width="3"/>
<path d="M39.5571 47.0219L61.1209 34.0485V45.8531L38.2683 58.2924L15.4158 45.8531V34.0485L36.9795 47.0219C37.7725 47.499 38.7642 47.499 39.5571 47.0219Z" stroke="#F58221" stroke-width="3"/>
<path d="M75.6668 21.3854C75.6668 20.7486 75.2151 20.2324 74.6579 20.2324C74.1007 20.2324 73.649 20.7486 73.649 21.3854V34.8659C73.649 35.5027 74.1007 36.0188 74.6579 36.0188C75.2151 36.0188 75.6668 35.5027 75.6668 34.8659V21.3854Z" fill="#F58221"/>
<path d="M76.1847 36.948C76.1847 37.7995 75.4974 38.4829 74.658 38.4829C73.8187 38.4829 73.1313 37.7995 73.1313 36.948C73.1313 36.0964 73.8187 35.4131 74.658 35.4131C75.4974 35.4131 76.1847 36.0964 76.1847 36.948Z" stroke="#F58221" stroke-width="3"/>
<path d="M72.3293 52.4529L73.8089 43.5512C73.9894 42.4656 75.5353 42.4254 75.772 43.5001L77.7325 52.4018C77.8699 53.0258 77.3948 53.6169 76.7559 53.6169H73.3158C72.698 53.6169 72.228 53.0623 72.3293 52.4529Z" stroke="#F58221" stroke-width="3"/>
</svg>
