<svg width="200" height="40" viewBox="0 0 200 40" fill="none" xmlns="http://www.w3.org/2000/svg">
<g clip-path="url(#clip0_121_1407)">
<path d="M100.671 17.68H97.9202V0.315186H112.172V17.68H109.399V2.81519H100.671V17.68Z" fill="#676B6C"/>
<path d="M119.286 2.81509V7.99527H123.832C124.696 8.04637 125.553 7.80843 126.264 7.3196C126.583 7.1114 126.845 6.82685 127.023 6.49224C127.202 6.15763 127.293 5.78375 127.287 5.40518C127.311 5.0406 127.244 4.67581 127.094 4.34229C126.943 4.00877 126.713 3.71653 126.423 3.49077C125.714 2.99869 124.856 2.76043 123.991 2.81509H119.286ZM119.286 17.68H116.536V0.315094H124.082C125.639 0.215123 127.174 0.724621 128.356 1.73401C128.877 2.18091 129.29 2.73965 129.562 3.3679C129.833 3.99614 129.957 4.67743 129.924 5.36014C129.936 6.04334 129.802 6.72135 129.532 7.35001C129.262 7.97866 128.861 8.54386 128.356 9.00879C127.178 10.0284 125.643 10.5465 124.082 10.4502H119.309V17.68H119.286Z" fill="#676B6C"/>
<path d="M137.061 13.6259C137.618 14.2192 138.294 14.6901 139.045 15.0083C139.797 15.3264 140.608 15.4846 141.425 15.4728C142.243 15.4904 143.056 15.3347 143.808 15.0162C144.561 14.6977 145.236 14.2237 145.789 13.6259C146.94 12.4044 147.575 10.7924 147.562 9.12144C147.589 7.44793 146.952 5.83077 145.789 4.61693C145.236 4.02069 144.566 3.54269 143.82 3.21228C143.073 2.88186 142.267 2.70599 141.45 2.69544C140.632 2.6849 139.822 2.83991 139.067 3.15096C138.312 3.46201 137.63 3.92255 137.061 4.50432C135.91 5.7243 135.283 7.3393 135.311 9.00883C135.282 9.85462 135.422 10.6977 135.722 11.4899C136.023 12.2822 136.478 13.008 137.061 13.6259V13.6259ZM147.835 15.4277C146.132 17.1057 143.827 18.0475 141.425 18.0475C139.023 18.0475 136.719 17.1057 135.015 15.4277C133.349 13.7038 132.442 11.3952 132.492 9.00883C132.459 7.82955 132.665 6.65567 133.099 5.55688C133.532 4.45809 134.184 3.45679 135.015 2.61243C136.719 0.934493 139.023 -0.00732422 141.425 -0.00732422C143.827 -0.00732422 146.132 0.934493 147.835 2.61243C148.674 3.45263 149.332 4.45268 149.769 5.55211C150.207 6.65153 150.415 7.82748 150.381 9.00883C150.401 10.1997 150.178 11.3822 149.725 12.4853C149.271 13.5885 148.598 14.5894 147.744 15.4277" fill="#676B6C"/>
<path d="M172.929 17.68H170.178V0.315186H172.929V7.40978L180.111 0.315186H183.657L175.543 8.26564L184.953 17.68H181.202L172.929 9.34672V17.68Z" fill="#676B6C"/>
<path d="M185.657 0.315186V2.81519H191.431V17.68H194.204V2.81519H200V0.315186H185.657Z" fill="#676B6C"/>
<path d="M117.513 22.5674V25.0899H123.287V39.9548H126.06V25.0899H131.856V22.5674H117.513Z" fill="#676B6C"/>
<path d="M64.8256 22.635V39.9999H67.5759V25.135H76.3269V39.9999H79.0772V22.635H64.8256Z" fill="#676B6C"/>
<path d="M90.7603 25.9684L93.9652 33.2657H87.5554L90.7603 25.9684ZM89.4647 22.5225L81.8275 39.9999H84.7596L86.6462 35.6756H94.9653L96.8746 39.9999H99.8295L92.1468 22.5225H89.4647Z" fill="#676B6C"/>
<path d="M105.262 25.1349V30.3151H109.808C110.672 30.3662 111.529 30.1283 112.24 29.6394C112.515 29.4006 112.736 29.1062 112.887 28.776C113.038 28.4459 113.116 28.0875 113.116 27.725C113.116 27.3625 113.038 27.0042 112.887 26.674C112.736 26.3438 112.515 26.0495 112.24 25.8106C111.53 25.3185 110.673 25.0803 109.808 25.1349H105.262ZM105.262 39.9998H102.512V22.6349H110.058C111.615 22.5349 113.149 23.0444 114.331 24.0538C114.857 24.4985 115.274 25.0563 115.55 25.6847C115.825 26.313 115.953 26.9954 115.922 27.68C115.944 28.3744 115.815 29.0654 115.545 29.7065C115.274 30.3475 114.868 30.9236 114.354 31.3962C113.177 32.4158 111.641 32.9339 110.081 32.8376H105.307V39.9998H105.262Z" fill="#676B6C"/>
<path d="M146.994 22.635V29.4819H137.857V22.635H135.106V39.9999H137.857V31.9819H146.994V39.9999H149.767V22.635H146.994Z" fill="#676B6C"/>
<path d="M172.929 25.1349V30.3151H177.475C178.339 30.3662 179.195 30.1283 179.907 29.6394C180.182 29.4006 180.403 29.1062 180.554 28.776C180.705 28.4459 180.783 28.0875 180.783 27.725C180.783 27.3625 180.705 27.0042 180.554 26.674C180.403 26.3438 180.182 26.0495 179.907 25.8106C179.197 25.3185 178.339 25.0803 177.475 25.1349H172.929ZM172.929 39.9998H170.178V22.6349H177.725C179.282 22.5349 180.816 23.0444 181.998 24.0538C182.52 24.5007 182.932 25.0595 183.204 25.6877C183.476 26.316 183.6 26.9972 183.566 27.68C183.588 28.3744 183.459 29.0654 183.189 29.7065C182.918 30.3475 182.512 30.9236 181.998 31.3962C180.821 32.4158 179.285 32.9339 177.725 32.8376H172.951V39.9998H172.929Z" fill="#676B6C"/>
<path d="M166.405 15.1802H154.108V17.6802H166.405V15.1802Z" fill="#676B6C"/>
<path d="M166.405 0.315186H154.108V2.81519H166.405V0.315186Z" fill="#676B6C"/>
<path d="M166.405 7.74756H154.108V10.2476H166.405V7.74756Z" fill="#676B6C"/>
<path d="M166.405 37.5H154.108V40H166.405V37.5Z" fill="#676B6C"/>
<path d="M166.405 22.635H154.108V25.135H166.405V22.635Z" fill="#676B6C"/>
<path d="M166.405 30.0674H154.108V32.5674H166.405V30.0674Z" fill="#676B6C"/>
<path d="M22.5253 28.8512H28.7987V0.315186H0V33.7837L6.27344 39.9999V6.5314H22.5026V28.8512H22.5253Z" fill="#676B6C"/>
<path d="M33.7993 0.315186V33.7837H17.5702V11.4638H11.3649V39.9999H40.0955V6.5314L33.7993 0.315186Z" fill="#676B6C"/>
</g>
<defs>
<clipPath id="clip0_121_1407">
<rect width="200" height="40" fill="white"/>
</clipPath>
</defs>
</svg>
