<svg width="200" height="41" viewBox="0 0 200 41" fill="none" xmlns="http://www.w3.org/2000/svg">
<g clip-path="url(#clip0_142_318)">
<path d="M100.67 18.1803H97.9202V0.81543H112.172V18.1803H109.399V3.31543H100.67V18.1803Z" fill="#272524"/>
<path d="M119.286 3.31509V8.49527H123.832C124.696 8.54637 125.553 8.30843 126.264 7.8196C126.584 7.6114 126.845 7.32685 127.023 6.99224C127.202 6.65763 127.293 6.28375 127.287 5.90518C127.311 5.5406 127.244 5.17581 127.094 4.84229C126.943 4.50877 126.713 4.21653 126.423 3.99077C125.714 3.49869 124.856 3.26043 123.991 3.31509H119.286ZM119.286 18.18H116.536V0.815094H124.082C125.639 0.715123 127.174 1.22462 128.356 2.23401C128.877 2.68091 129.29 3.23965 129.562 3.8679C129.833 4.49614 129.957 5.17743 129.924 5.86014C129.936 6.54334 129.802 7.22135 129.532 7.85001C129.262 8.47866 128.861 9.04386 128.356 9.50879C127.178 10.5284 125.643 11.0465 124.082 10.9502H119.309V18.18H119.286Z" fill="#272524"/>
<path d="M137.061 14.1259C137.618 14.7192 138.294 15.1901 139.045 15.5083C139.797 15.8264 140.608 15.9846 141.425 15.9728C142.243 15.9904 143.056 15.8347 143.808 15.5162C144.561 15.1977 145.236 14.7237 145.789 14.1259C146.94 12.9044 147.575 11.2924 147.562 9.62144C147.589 7.94793 146.952 6.33077 145.789 5.11693C145.236 4.52069 144.566 4.04269 143.82 3.71228C143.073 3.38186 142.267 3.20599 141.45 3.19544C140.632 3.1849 139.822 3.33991 139.067 3.65096C138.312 3.96201 137.63 4.42255 137.061 5.00432C135.911 6.2243 135.283 7.8393 135.311 9.50883C135.282 10.3546 135.422 11.1977 135.722 11.9899C136.023 12.7822 136.478 13.508 137.061 14.1259ZM147.835 15.9277C146.132 17.6057 143.827 18.5475 141.425 18.5475C139.023 18.5475 136.719 17.6057 135.015 15.9277C133.349 14.2038 132.442 11.8952 132.492 9.50883C132.459 8.32955 132.665 7.15567 133.099 6.05688C133.532 4.95809 134.184 3.95679 135.015 3.11243C136.719 1.43449 139.023 0.492676 141.425 0.492676C143.827 0.492676 146.132 1.43449 147.835 3.11243C148.674 3.95263 149.332 4.95268 149.769 6.05211C150.207 7.15153 150.415 8.32748 150.381 9.50883C150.401 10.6997 150.178 11.8822 149.725 12.9853C149.272 14.0885 148.598 15.0894 147.744 15.9277" fill="#272524"/>
<path d="M172.929 18.1803H170.178V0.81543H172.929V7.91002L180.111 0.81543H183.657L175.543 8.76588L184.953 18.1803H181.202L172.929 9.84696V18.1803Z" fill="#272524"/>
<path d="M185.657 0.81543V3.31543H191.431V18.1803H194.204V3.31543H200V0.81543H185.657Z" fill="#272524"/>
<path d="M117.513 23.0674V25.5899H123.287V40.4548H126.06V25.5899H131.856V23.0674H117.513Z" fill="#272524"/>
<path d="M64.8256 23.1353V40.5001H67.5759V25.6353H76.3269V40.5001H79.0772V23.1353H64.8256Z" fill="#272524"/>
<path d="M90.7604 26.4684L93.9653 33.7657H87.5554L90.7604 26.4684ZM89.4647 23.0225L81.8275 40.4999H84.7597L86.6462 36.1756H94.9654L96.8747 40.4999H99.8296L92.1469 23.0225H89.4647Z" fill="#272524"/>
<path d="M105.262 25.6349V30.8151H109.808C110.672 30.8662 111.529 30.6283 112.24 30.1394C112.515 29.9006 112.736 29.6062 112.887 29.276C113.038 28.9459 113.116 28.5875 113.116 28.225C113.116 27.8625 113.038 27.5042 112.887 27.174C112.736 26.8438 112.515 26.5495 112.24 26.3106C111.53 25.8185 110.672 25.5803 109.808 25.6349H105.262ZM105.262 40.4998H102.512V23.1349H110.058C111.615 23.0349 113.149 23.5444 114.331 24.5538C114.857 24.9985 115.274 25.5563 115.55 26.1847C115.825 26.813 115.953 27.4954 115.922 28.18C115.944 28.8744 115.815 29.5654 115.544 30.2065C115.274 30.8475 114.868 31.4236 114.354 31.8962C113.177 32.9158 111.641 33.4339 110.081 33.3376H105.307V40.4998H105.262Z" fill="#272524"/>
<path d="M146.994 23.1353V29.9821H137.857V23.1353H135.106V40.5001H137.857V32.4821H146.994V40.5001H149.767V23.1353H146.994Z" fill="#272524"/>
<path d="M172.929 25.6349V30.8151H177.475C178.339 30.8662 179.195 30.6283 179.907 30.1394C180.182 29.9006 180.403 29.6062 180.554 29.276C180.705 28.9459 180.783 28.5875 180.783 28.225C180.783 27.8625 180.705 27.5042 180.554 27.174C180.403 26.8438 180.182 26.5495 179.907 26.3106C179.197 25.8185 178.339 25.5803 177.475 25.6349H172.929ZM172.929 40.4998H170.178V23.1349H177.725C179.282 23.0349 180.816 23.5444 181.998 24.5538C182.52 25.0007 182.932 25.5595 183.204 26.1877C183.476 26.816 183.6 27.4972 183.566 28.18C183.588 28.8744 183.459 29.5654 183.189 30.2065C182.918 30.8475 182.512 31.4236 181.998 31.8962C180.821 32.9158 179.285 33.4339 177.725 33.3376H172.951V40.4998H172.929Z" fill="#272524"/>
<path d="M166.405 15.6802H154.108V18.1802H166.405V15.6802Z" fill="#F58221"/>
<path d="M166.405 0.81543H154.108V3.31543H166.405V0.81543Z" fill="#F58221"/>
<path d="M166.405 8.24756H154.108V10.7476H166.405V8.24756Z" fill="#F58221"/>
<path d="M166.405 38H154.108V40.5H166.405V38Z" fill="#F58221"/>
<path d="M166.405 23.1353H154.108V25.6353H166.405V23.1353Z" fill="#F58221"/>
<path d="M166.405 30.5674H154.108V33.0674H166.405V30.5674Z" fill="#F58221"/>
<path d="M22.5253 29.3515H28.7987V0.81543H0V34.2839L6.27344 40.5001V7.03165H22.5026V29.3515H22.5253Z" fill="#F58221"/>
<path d="M33.7992 0.81543V34.2839H17.5701V11.9641H11.3649V40.5001H40.0954V7.03165L33.7992 0.81543Z" fill="#F58221"/>
</g>
<defs>
<clipPath id="clip0_142_318">
<rect width="200" height="40" fill="white" transform="translate(0 0.5)"/>
</clipPath>
</defs>
</svg>
